<?xml version="1.0" encoding="UTF-8" standalone="no"?>
<svg
   width="116.22443mm"
   height="23.324274mm"
   viewBox="0 0 116.22445 23.324275"
   version="1.1"
   id="svg8"
   sodipodi:docname="logo-ub-digi-w-de.svg"
   inkscape:version="1.3.2 (091e20e, 2023-11-25, custom)"
   xmlns:inkscape="http://www.inkscape.org/namespaces/inkscape"
   xmlns:sodipodi="http://sodipodi.sourceforge.net/DTD/sodipodi-0.dtd"
   xmlns:xlink="http://www.w3.org/1999/xlink"
   xmlns="http://www.w3.org/2000/svg"
   xmlns:svg="http://www.w3.org/2000/svg"
   xmlns:rdf="http://www.w3.org/1999/02/22-rdf-syntax-ns#"
   xmlns:cc="http://creativecommons.org/ns#"
   xmlns:dc="http://purl.org/dc/elements/1.1/">
  <sodipodi:namedview
     id="namedview1"
     pagecolor="#ffffff"
     bordercolor="#999999"
     borderopacity="1"
     inkscape:showpageshadow="0"
     inkscape:pageopacity="0"
     inkscape:pagecheckerboard="0"
     inkscape:deskcolor="#d1d1d1"
     inkscape:document-units="mm"
     inkscape:zoom="3.2098459"
     inkscape:cx="219.63671"
     inkscape:cy="69.006428"
     inkscape:window-width="1920"
     inkscape:window-height="1137"
     inkscape:window-x="1912"
     inkscape:window-y="-8"
     inkscape:window-maximized="1"
     inkscape:current-layer="layer2" />
  <defs
     id="defs2">
    <clipPath
       id="SVGID_4_">
      <use
         height="100%"
         width="100%"
         y="0"
         x="0"
         id="use37"
         style="overflow:visible"
         xlink:href="#SVGID_3_" />
    </clipPath>
    <clipPath
       id="clipPath2405">
      <use
         height="100%"
         width="100%"
         y="0"
         x="0"
         id="use2403"
         style="overflow:visible"
         xlink:href="#SVGID_3_" />
    </clipPath>
    <rect
       height="168.8"
       width="291.20001"
       y="218.39999"
       x="156"
       id="SVGID_3_" />
    <clipPath
       id="SVGID_4_-9">
      <use
         xlink:href="#SVGID_3_-2"
         style="overflow:visible"
         id="use37-2"
         x="0"
         y="0"
         width="100%"
         height="100%" />
    </clipPath>
    <clipPath
       id="clipPath3162">
      <use
         xlink:href="#SVGID_3_-2"
         style="overflow:visible"
         id="use3160"
         x="0"
         y="0"
         width="100%"
         height="100%" />
    </clipPath>
    <clipPath
       id="SVGID_2_-6">
      <use
         xlink:href="#SVGID_1_"
         style="overflow:visible"
         id="use11-8"
         x="0"
         y="0"
         width="100%"
         height="100%" />
    </clipPath>
    <rect
       id="SVGID_1_"
       x="158.3"
       y="218.8"
       width="286.89999"
       height="169.7" />
    <rect
       id="SVGID_3_-2"
       x="158.3"
       y="218.8"
       width="286.89999"
       height="169.7" />
    <defs
       id="defs33">
      <rect
         height="168.8"
         width="291.20001"
         y="218.39999"
         x="156"
         id="rect2472" />
    </defs>
    <clipPath
       id="clipPath2422">
      <use
         height="100%"
         width="100%"
         y="0"
         x="0"
         id="use2420"
         style="overflow:visible"
         xlink:href="#SVGID_3_" />
    </clipPath>
  </defs>
  <metadata
     id="metadata5">
    <rdf:RDF>
      <cc:Work
         rdf:about="">
        <dc:format>image/svg+xml</dc:format>
        <dc:type
           rdf:resource="http://purl.org/dc/dcmitype/StillImage" />
      </cc:Work>
    </rdf:RDF>
  </metadata>
  <g
     inkscape:groupmode="layer"
     id="layer2"
     inkscape:label="blue-background"
     style="display:none"
     transform="matrix(1.0154929,0,0,1.1084746,-1.0728498,-2.6466589)">
    <rect
       style="fill:#06a2e4;stroke-width:0"
       id="rect1"
       width="442.38882"
       height="91.904724"
       x="0.31154144"
       y="0.31154144"
       transform="scale(0.26458333)" />
  </g>
  <path
     id="rect15"
     style="fill:#ffffff;stroke-width:0.264583;fill-opacity:1"
     class="st1"
     d="m 16.045208,39.469154 h 5.820833 v 5.820834 h -5.820833 z"
     transform="matrix(0.52224332,0,0,0.52224332,-5.0356226,-10.553218)" />
  <path
     id="rect17"
     style="fill:#ffffff;stroke-width:0.264583;fill-opacity:1"
     class="st1"
     d="m 28.798124,39.469154 h 5.820834 v 5.820834 h -5.820834 z"
     transform="matrix(0.52224332,0,0,0.52224332,-5.0356226,-10.553218)" />
  <path
     id="rect19"
     style="fill:#ffffff;stroke-width:0.264583;fill-opacity:1"
     class="st1"
     d="m 9.642292,33.092693 h 5.820833 v 5.820834 H 9.642292 Z"
     transform="matrix(0.52224332,0,0,0.52224332,-5.0356226,-10.553218)" />
  <path
     id="rect21"
     style="fill:#ffffff;stroke-width:0.264583;fill-opacity:1"
     class="st1"
     d="m 9.642292,20.31332 h 5.820833 v 5.820833 H 9.642292 Z"
     transform="matrix(0.52224332,0,0,0.52224332,-5.0356226,-10.553218)" />
  <path
     id="rect23"
     style="fill:#ffffff;stroke-width:0.264583;fill-opacity:1"
     class="st1"
     d="m 16.045208,26.716236 h 5.820833 v 5.820833 h -5.820833 z"
     transform="matrix(0.52224332,0,0,0.52224332,-5.0356226,-10.553218)" />
  <path
     id="rect25"
     style="fill:#ffffff;stroke-width:0.264583;fill-opacity:1"
     class="st1"
     d="m 28.798124,26.716236 h 5.820834 v 5.820833 h -5.820834 z"
     transform="matrix(0.52224332,0,0,0.52224332,-5.0356226,-10.553218)" />
  <path
     id="rect27"
     style="fill:#ffffff;stroke-width:0.264583;fill-opacity:1"
     class="st1"
     d="m 22.421669,33.092693 h 5.820833 v 5.820834 h -5.820833 z"
     transform="matrix(0.52224332,0,0,0.52224332,-5.0356226,-10.553218)" />
  <path
     id="rect29"
     style="fill:#ffffff;stroke-width:0.264583;fill-opacity:1"
     class="st1"
     d="m 22.421669,20.31332 h 5.820833 v 5.820833 h -5.820833 z"
     transform="matrix(0.52224332,0,0,0.52224332,-5.0356226,-10.553218)" />
  <path
     class="st0"
     d="m 72.718955,34.283315 h 1.905 c 2.778125,0 5.027086,0.978958 5.027086,3.4925 0,2.592916 -2.248961,3.598333 -4.762503,3.598333 -0.9525,0 -1.613958,0 -2.169583,-0.105834 z m 0,-9.710209 c 0.449792,-0.105833 1.137708,-0.185208 2.38125,-0.185208 2.54,0 3.968746,0.978958 3.968746,2.8575 0,1.825625 -1.534579,3.042708 -4.497913,3.042708 h -1.825625 v -5.715 z m -5.529792,20.531667 c 1.243542,0.185208 3.307292,0.370416 6.058959,0.370416 4.92125,0 7.911039,-0.79375 9.710209,-2.248958 1.53458,-1.217083 2.56646,-2.963333 2.56646,-5.23875 0,-3.201458 -2.09021,-5.344583 -4.92125,-6.085416 v -0.07937 c 2.75166,-1.058334 4.02166,-3.069167 4.02166,-5.23875 0,-2.275417 -1.21708,-3.96875 -2.93687,-4.868334 -1.79917,-1.058333 -3.889376,-1.402291 -7.302501,-1.402291 -2.831042,0 -5.767917,0.264583 -7.223125,0.555625 V 45.104773 Z M 42.186039,20.498523 v 13.784792 c 0,7.858124 3.624791,11.324166 9.868958,11.324166 6.455833,0 10.292292,-3.624792 10.292292,-11.244791 V 20.498523 H 56.76458 V 34.68019 c 0,4.392083 -1.613958,6.455833 -4.550833,6.455833 -2.831042,0 -4.471458,-2.169583 -4.471458,-6.455833 V 20.498523 Z"
     id="path13"
     clip-path="none"
     style="fill:#ffffff;fill-opacity:1;stroke-width:0.264583"
     transform="matrix(0.52224332,0,0,0.52224332,-4.7178156,-10.553218)" />
  <path
     style="fill:#ffffff;fill-opacity:1"
     clip-path="url(#SVGID_4_)"
     id="path39"
     d="m 437.4,387.2 h 6.3 l -1.5,-28.5 h -8.5 l -3,9.5 c -1,3.2 -1.9,6.9 -2.7,10.2 h -0.2 c -0.6,-3.3 -1.5,-6.9 -2.4,-10.2 l -2.8,-9.6 H 414 l -1.8,28.5 h 6 l 0.6,-10.8 c 0.2,-3.6 0.3,-8 0.5,-11.8 h 0.1 c 0.7,3.8 1.6,7.8 2.6,11.2 l 3,11 h 5 l 3.5,-11.1 c 1.1,-3.3 2.3,-7.4 3.2,-11 h 0.1 c 0,4.2 0.1,8.3 0.3,11.7 z m -46.5,0 h 6.4 v -28.5 h -6.4 z M 375.3,369.9 H 364.8 V 364 h 11.1 v -5.3 h -17.5 v 28.5 h 18.1 v -5.3 h -11.7 v -6.8 h 10.5 z m -56.1,-11.2 v 28.5 h 6.4 v -11.9 h 10.6 v 11.9 h 6.4 v -28.5 h -6.4 v 11 h -10.6 v -11 z M 286,387.2 v -8.6 c 0,-4.7 -0.1,-8.7 -0.3,-12.5 h 0.2 c 1.4,3.3 3.3,7 5,10.1 l 6.1,11 h 6.8 v -28.5 h -5.9 v 8.3 c 0,4.3 0.1,8.2 0.5,11.9 h -0.1 c -1.3,-3.2 -3,-6.8 -4.7,-9.8 l -5.9,-10.4 h -7.5 v 28.5 z m -39.2,0 v -8.6 c 0,-4.7 -0.1,-8.7 -0.3,-12.5 h 0.2 c 1.4,3.3 3.3,7 5,10.1 l 6.1,11 h 6.8 v -28.5 h -5.9 v 8.3 c 0,4.3 0.1,8.2 0.5,11.9 H 259 c -1.3,-3.2 -3,-6.8 -4.7,-9.8 l -5.9,-10.4 h -7.5 v 28.5 z m -36.1,-12.1 1.7,-6.1 c 0.4,-1.7 0.9,-3.8 1.3,-5.5 h 0.1 c 0.4,1.6 0.9,3.8 1.4,5.5 l 1.8,6.1 z m 7.3,4.8 2.2,7.3 h 6.9 l -8.9,-28.5 h -8.4 l -8.7,28.5 h 6.7 l 2,-7.3 z m -36,7.3 h 6.3 l -1.5,-28.5 h -8.5 l -3,9.5 c -1,3.2 -1.9,6.9 -2.7,10.2 h -0.2 c -0.6,-3.3 -1.5,-6.9 -2.4,-10.2 l -2.8,-9.6 h -8.6 l -1.8,28.5 h 6 l 0.5,-10.8 c 0.2,-3.6 0.3,-8 0.5,-11.8 h 0.1 c 0.7,3.8 1.6,7.8 2.6,11.2 l 3,11 h 5 l 3.5,-11.1 c 1.1,-3.3 2.3,-7.4 3.2,-11 h 0.1 c 0,4.2 0.1,8.3 0.3,11.7 z"
     class="st2"
     transform="matrix(0.13817688,0,0,0.13817688,-21.555593,-30.233093)" />
  <path
     style="fill:#ffffff;fill-opacity:1"
     clip-path="url(#SVGID_4_)"
     id="path41"
     d="m 434.1,349.6 h 3 v -4.4 l 1.1,-1.4 3.3,5.9 h 3.6 l -4.7,-7.8 4.5,-5.8 h -3.8 l -3.1,4.5 c -0.3,0.5 -0.6,1 -0.9,1.5 v 0 -6 h -3 z m -5.1,-8.3 h -5 v -2.8 h 5.3 V 336 h -8.4 v 13.6 h 8.6 v -2.5 H 424 v -3.2 h 5 z M 404.6,336 v 13.6 h 3.1 v -5.7 h 5.1 v 5.7 h 3.1 V 336 h -3.1 v 5.2 h -5.1 V 336 Z m -10.8,13.6 h 3.1 v -11 h 3.7 V 336 h -10.4 v 2.6 h 3.7 v 11 z m -13,-2.2 c -2.1,0 -3.3,-2 -3.3,-4.6 0,-2.5 1.2,-4.6 3.3,-4.6 2.1,0 3.3,2.1 3.3,4.5 0,2.7 -1.2,4.7 -3.3,4.7 z m -0.1,2.4 c 4,0 6.7,-2.7 6.7,-7.2 0,-3.8 -2.3,-6.9 -6.5,-6.9 -4,0 -6.6,3 -6.6,7.1 0,4 2.4,7 6.4,7 z m -13.9,-0.2 h 3.1 V 336 h -3.1 z m -12.8,0 h 8.5 V 347 h -5.4 V 336 H 354 Z m -11.5,-6 h 1 c 1.5,0 2.8,0.5 2.8,1.9 0,1.4 -1.2,2 -2.6,2 -0.5,0 -0.9,0 -1.2,-0.1 z m 0,-5.4 c 0.2,-0.1 0.6,-0.1 1.3,-0.1 1.4,0 2.2,0.5 2.2,1.6 0,1 -0.8,1.7 -2.5,1.7 h -1 z m -3.1,11.3 c 0.7,0.1 1.8,0.2 3.3,0.2 2.7,0 4.4,-0.4 5.3,-1.2 0.8,-0.7 1.4,-1.6 1.4,-2.9 0,-1.8 -1.1,-2.9 -2.7,-3.3 v 0 c 1.5,-0.6 2.2,-1.7 2.2,-2.9 0,-1.3 -0.7,-2.2 -1.6,-2.7 -1,-0.6 -2.1,-0.8 -4,-0.8 -1.6,0 -3.2,0.1 -4,0.3 v 13.3 z m -8.1,0.1 h 3.1 V 336 h -3.1 z m -11.6,-6 h 1 c 1.5,0 2.8,0.5 2.8,1.9 0,1.4 -1.2,2 -2.6,2 -0.5,0 -0.9,0 -1.2,-0.1 z m 0,-5.4 c 0.2,-0.1 0.6,-0.1 1.3,-0.1 1.4,0 2.2,0.5 2.2,1.6 0,1 -0.8,1.7 -2.5,1.7 h -1 z m -3,11.3 c 0.7,0.1 1.8,0.2 3.3,0.2 2.7,0 4.4,-0.4 5.3,-1.2 0.8,-0.7 1.4,-1.6 1.4,-2.9 0,-1.8 -1.1,-2.9 -2.7,-3.3 v 0 c 1.5,-0.6 2.2,-1.7 2.2,-2.9 0,-1.3 -0.7,-2.2 -1.6,-2.7 -1,-0.6 -2.1,-0.8 -4,-0.8 -1.6,0 -3.2,0.1 -4,0.3 v 13.3 z M 302.8,349 c 0.8,0.4 2.3,0.8 3.8,0.8 3.7,0 5.5,-1.9 5.5,-4.2 0,-1.9 -1.1,-3.2 -3.5,-4.1 -1.8,-0.7 -2.5,-1.1 -2.5,-1.9 0,-0.7 0.6,-1.3 2,-1.3 1.3,0 2.3,0.4 2.8,0.6 l 0.7,-2.5 c -0.8,-0.4 -1.9,-0.7 -3.5,-0.7 -3.2,0 -5.1,1.8 -5.1,4.1 0,2 1.5,3.2 3.7,4.1 1.6,0.6 2.3,1.1 2.3,1.9 0,0.9 -0.7,1.5 -2.2,1.5 -1.3,0 -2.6,-0.4 -3.4,-0.8 z m -10.1,0.6 h 3.1 v -11 h 3.7 V 336 H 289 v 2.6 h 3.7 z m -10.9,-14.4 c 0.8,0 1.3,-0.6 1.3,-1.3 0,-0.8 -0.6,-1.4 -1.3,-1.4 -0.8,0 -1.4,0.6 -1.4,1.4 0,0.7 0.6,1.3 1.4,1.3 z m -4.1,0 c 0.7,0 1.3,-0.6 1.3,-1.3 0,-0.8 -0.6,-1.4 -1.3,-1.4 -0.8,0 -1.4,0.6 -1.4,1.4 0,0.7 0.6,1.3 1.4,1.3 z m 0.3,8.6 0.8,-2.9 c 0.2,-0.8 0.4,-1.8 0.6,-2.6 v 0 c 0.2,0.8 0.4,1.8 0.7,2.6 l 0.8,2.9 z m 3.5,2.3 1,3.5 h 3.3 L 281.6,336 h -4 l -4.2,13.6 h 3.2 l 1,-3.5 z m -17.9,3.5 h 3.1 v -11 h 3.7 V 336 H 260 v 2.6 h 3.7 v 11 z m -10.8,0 h 3.1 V 336 h -3.1 z M 238.9,349 c 0.8,0.4 2.3,0.8 3.8,0.8 3.7,0 5.5,-1.9 5.5,-4.2 0,-1.9 -1.1,-3.2 -3.5,-4.1 -1.8,-0.7 -2.5,-1.1 -2.5,-1.9 0,-0.7 0.6,-1.3 2,-1.3 1.3,0 2.3,0.4 2.8,0.6 l 0.7,-2.5 c -0.8,-0.4 -1.9,-0.7 -3.5,-0.7 -3.2,0 -5.1,1.8 -5.1,4.1 0,2 1.5,3.2 3.7,4.1 1.6,0.6 2.3,1.1 2.3,1.9 0,0.9 -0.7,1.5 -2.2,1.5 -1.3,0 -2.6,-0.4 -3.4,-0.8 z m -10.8,-10.7 c 0.2,-0.1 0.6,-0.1 1.4,-0.1 1.4,0 2.3,0.6 2.3,1.9 0,1.2 -0.9,1.9 -2.4,1.9 h -1.2 v -3.7 z m -3,11.3 h 3 v -5.4 h 0.9 c 1.3,0 1.9,0.5 2.2,2.2 0.4,1.7 0.7,2.8 0.9,3.2 h 3.1 c -0.3,-0.5 -0.7,-2.3 -1.1,-3.9 -0.3,-1.3 -0.9,-2.1 -1.8,-2.5 v -0.1 c 1.2,-0.4 2.4,-1.6 2.4,-3.3 0,-1.2 -0.4,-2.2 -1.3,-2.8 -1,-0.8 -2.4,-1.1 -4.4,-1.1 -1.7,0 -3.1,0.1 -4.1,0.3 v 13.4 z m -5.1,-8.3 h -5 v -2.8 h 5.3 V 336 h -8.4 v 13.6 h 8.6 v -2.5 H 215 v -3.2 h 5 z m -16.5,8.3 4.5,-13.6 h -3.3 l -1.7,5.8 c -0.5,1.6 -0.9,3.2 -1.2,4.8 h -0.1 c -0.3,-1.7 -0.7,-3.2 -1.2,-4.9 l -1.7,-5.7 h -3.4 l 4.4,13.6 z m -15,0 h 3.1 V 336 h -3.1 z m -13.5,0 v -4.1 c 0,-2.2 0,-4.1 -0.1,-5.9 h 0.1 c 0.6,1.6 1.6,3.3 2.4,4.8 l 2.9,5.2 h 3.2 V 336 h -2.8 v 4 c 0,2.1 0.1,3.9 0.2,5.7 v 0 c -0.6,-1.5 -1.4,-3.2 -2.2,-4.7 l -2.8,-5 h -3.6 v 13.6 z M 156,336 v 7.6 c 0,4.3 2,6.2 5.4,6.2 3.5,0 5.7,-2 5.7,-6.2 V 336 H 164 v 7.8 c 0,2.4 -0.9,3.5 -2.5,3.5 -1.6,0 -2.5,-1.2 -2.5,-3.5 V 336 Z"
     class="st2"
     transform="matrix(0.13817688,0,0,0.13817688,-21.555593,-30.233093)" />
  <g
     aria-label="DigitaleSammlungen"
     id="text197"
     style="font-size:10.5833px;line-height:1.25;letter-spacing:0px;word-spacing:0px;fill:#ffffff;stroke-width:0.264583;fill-opacity:1"
     transform="translate(-16.379772,-33.301211)">
    <path
       d="m 71.094059,40.783603 c 0.391582,0.05292 0.99483,0.105833 1.830911,0.105833 1.396995,0 2.550575,-0.296332 3.301989,-0.920747 0.677331,-0.582081 1.174747,-1.523995 1.174747,-2.88924 0,-1.259413 -0.465666,-2.137827 -1.206497,-2.688158 -0.677331,-0.507999 -1.566328,-0.761998 -2.931574,-0.761998 -0.80433,0 -1.576911,0.0635 -2.169576,0.158749 z m 1.608662,-5.852564 c 0.137582,-0.03175 0.380998,-0.0635 0.730247,-0.0635 1.396996,0 2.264826,0.783164 2.264826,2.264826 0,1.703911 -0.96308,2.508242 -2.434159,2.497659 -0.190499,0 -0.423332,0 -0.560914,-0.03175 z"
       style="font-weight:bold;font-family:'Myriad Pro';-inkscape-font-specification:'Myriad Pro, Bold';fill:#ffffff;fill-opacity:1"
       id="path347" />
    <path
       d="M 80.058102,40.815353 V 35.64012 H 78.44944 v 5.175233 z M 79.264354,33.39646 c -0.518582,0 -0.857247,0.349249 -0.857247,0.804331 0,0.444499 0.328082,0.804331 0.836081,0.804331 0.539748,0 0.86783,-0.359832 0.86783,-0.804331 -0.01058,-0.455082 -0.328082,-0.804331 -0.846664,-0.804331 z"
       style="font-weight:bold;font-family:'Myriad Pro';-inkscape-font-specification:'Myriad Pro, Bold';fill:#ffffff;fill-opacity:1"
       id="path349" />
    <path
       d="m 86.249334,37.185282 c 0,-0.772581 0.02117,-1.206497 0.04233,-1.545162 h -1.396996 l -0.05292,0.624415 h -0.02117 c -0.264582,-0.433916 -0.709081,-0.740831 -1.418162,-0.740831 -1.280579,0 -2.349492,1.05833 -2.349492,2.730491 0,1.481662 0.910163,2.518825 2.190743,2.518825 0.592664,0 1.09008,-0.243416 1.396995,-0.666748 h 0.02117 v 0.328083 c 0,0.96308 -0.582082,1.365245 -1.344079,1.365245 -0.613832,0 -1.174746,-0.201082 -1.502829,-0.391582 l -0.317499,1.227663 c 0.465665,0.253999 1.174747,0.391582 1.862661,0.391582 0.761998,0 1.534578,-0.148166 2.095493,-0.634998 0.592665,-0.518582 0.793748,-1.333496 0.793748,-2.328326 z m -1.608662,1.322912 c 0,0.137583 -0.01058,0.306916 -0.05292,0.433915 -0.105833,0.370416 -0.433916,0.645582 -0.857247,0.645582 -0.666748,0 -1.047747,-0.603248 -1.047747,-1.375829 0,-0.941914 0.465665,-1.471079 1.05833,-1.471079 0.444498,0 0.751414,0.285749 0.86783,0.709081 0.02117,0.09525 0.03175,0.201083 0.03175,0.296332 z"
       style="font-weight:bold;font-family:'Myriad Pro';-inkscape-font-specification:'Myriad Pro, Bold';fill:#ffffff;fill-opacity:1"
       id="path351" />
    <path
       d="M 89.149148,40.815353 V 35.64012 h -1.608662 v 5.175233 z M 88.3554,33.39646 c -0.518581,0 -0.857247,0.349249 -0.857247,0.804331 0,0.444499 0.328082,0.804331 0.836081,0.804331 0.539748,0 0.86783,-0.359832 0.86783,-0.804331 C 89.191481,33.745709 88.873982,33.39646 88.3554,33.39646 Z"
       style="font-weight:bold;font-family:'Myriad Pro';-inkscape-font-specification:'Myriad Pro, Bold';fill:#ffffff;fill-opacity:1"
       id="path353" />
    <path
       d="m 90.662562,34.67704 v 0.96308 h -0.687915 v 1.185329 h 0.687915 v 2.11666 c 0,0.730248 0.148166,1.227663 0.444498,1.534579 0.264583,0.264582 0.698498,0.444498 1.21708,0.444498 0.444498,0 0.83608,-0.0635 1.037163,-0.137583 l -0.01058,-1.217079 c -0.148166,0.03175 -0.253999,0.04233 -0.476249,0.04233 -0.476248,0 -0.634998,-0.285749 -0.634998,-0.910164 v -1.873244 h 1.15358 V 35.64012 h -1.15358 v -1.396996 z"
       style="font-weight:bold;font-family:'Myriad Pro';-inkscape-font-specification:'Myriad Pro, Bold';fill:#ffffff;fill-opacity:1"
       id="path355" />
    <path
       d="m 98.631792,37.75678 c 0,-1.227663 -0.539748,-2.24366 -2.264826,-2.24366 -0.941913,0 -1.650994,0.264583 -2.010827,0.465665 l 0.296333,1.037164 c 0.338665,-0.211666 0.89958,-0.391582 1.428745,-0.391582 0.793748,0 0.941914,0.391582 0.941914,0.677331 v 0.0635 c -1.830911,0 -3.037407,0.634998 -3.037407,1.979077 0,0.825497 0.624415,1.587495 1.672161,1.587495 0.613832,0 1.142997,-0.22225 1.481662,-0.634998 h 0.03175 l 0.09525,0.518581 h 1.449912 c -0.0635,-0.285749 -0.08467,-0.761997 -0.08467,-1.248829 z m -1.555745,1.174746 c 0,0.09525 -0.01058,0.190499 -0.03175,0.275166 -0.105832,0.328082 -0.444498,0.592665 -0.83608,0.592665 -0.359832,0 -0.634998,-0.201083 -0.634998,-0.613832 0,-0.613831 0.656164,-0.814914 1.502828,-0.814914 z"
       style="font-weight:bold;font-family:'Myriad Pro';-inkscape-font-specification:'Myriad Pro, Bold';fill:#ffffff;fill-opacity:1"
       id="path357" />
    <path
       d="m 99.91237,40.815353 h 1.60866 v -7.514142 h -1.60866 z"
       style="font-weight:bold;font-family:'Myriad Pro';-inkscape-font-specification:'Myriad Pro, Bold';fill:#ffffff;fill-opacity:1"
       id="path359" />
    <path
       d="m 107.39476,38.741027 c 0.0212,-0.116417 0.0529,-0.359833 0.0529,-0.634998 0,-1.28058 -0.635,-2.582325 -2.30716,-2.582325 -1.79916,0 -2.61408,1.449912 -2.61408,2.762241 0,1.619245 1.00542,2.635241 2.76224,2.635241 0.6985,0 1.34408,-0.105833 1.87325,-0.328082 l -0.21167,-1.09008 c -0.43391,0.148166 -0.87841,0.22225 -1.42874,0.22225 -0.75142,0 -1.41817,-0.317499 -1.4605,-0.984247 z m -3.34432,-1.100663 c 0.0423,-0.423332 0.3175,-1.047747 0.99483,-1.047747 0.74083,0 0.91016,0.656164 0.91016,1.047747 z"
       style="font-weight:bold;font-family:'Myriad Pro';-inkscape-font-specification:'Myriad Pro, Bold';fill:#ffffff;fill-opacity:1"
       id="path361" />
    <path
       d="m 70.818893,54.074909 c 0.402166,0.222249 1.206496,0.444498 2.02141,0.444498 1.957911,0 2.868075,-1.015997 2.868075,-2.211909 0,-1.005414 -0.582082,-1.661578 -1.841495,-2.127244 -0.93133,-0.349249 -1.322912,-0.550331 -1.322912,-1.005413 0,-0.359832 0.338666,-0.687915 1.037163,-0.687915 0.687915,0 1.206497,0.201083 1.481662,0.338666 l 0.359833,-1.291163 c -0.423332,-0.201082 -1.005414,-0.359832 -1.820328,-0.359832 -1.672161,0 -2.698741,0.920747 -2.698741,2.137827 0,1.037163 0.783164,1.693328 1.968493,2.11666 0.857248,0.296332 1.195913,0.550331 1.195913,0.99483 0,0.465665 -0.391582,0.772581 -1.132413,0.772581 -0.687914,0 -1.365246,-0.22225 -1.788578,-0.444499 z"
       style="font-weight:bold;font-family:'Myriad Pro';-inkscape-font-specification:'Myriad Pro, Bold';fill:#ffffff;fill-opacity:1"
       id="path363" />
    <path
       d="m 81.148197,51.355001 c 0,-1.227663 -0.539748,-2.24366 -2.264826,-2.24366 -0.941914,0 -1.650995,0.264583 -2.010827,0.465665 l 0.296332,1.037164 c 0.338666,-0.211666 0.899581,-0.391582 1.428746,-0.391582 0.793747,0 0.941914,0.391582 0.941914,0.677331 v 0.0635 c -1.830911,0 -3.037407,0.634998 -3.037407,1.979077 0,0.825497 0.624414,1.587495 1.672161,1.587495 0.613831,0 1.142996,-0.22225 1.481662,-0.634998 h 0.03175 l 0.09525,0.518581 h 1.449912 c -0.0635,-0.285749 -0.08467,-0.761997 -0.08467,-1.248829 z m -1.555745,1.174746 c 0,0.09525 -0.01058,0.190499 -0.03175,0.275166 -0.105833,0.328082 -0.444498,0.592664 -0.836081,0.592664 -0.359832,0 -0.634998,-0.201082 -0.634998,-0.613831 0,-0.613831 0.656165,-0.814914 1.502829,-0.814914 z"
       style="font-weight:bold;font-family:'Myriad Pro';-inkscape-font-specification:'Myriad Pro, Bold';fill:#ffffff;fill-opacity:1"
       id="path365" />
    <path
       d="m 82.428775,54.413574 h 1.566328 v -3.01624 c 0,-0.137583 0.01058,-0.285749 0.0635,-0.412749 0.09525,-0.253999 0.338666,-0.571498 0.751414,-0.571498 0.518582,0 0.751415,0.444499 0.751415,1.09008 v 2.910407 h 1.566328 v -3.026823 c 0,-0.137583 0.02117,-0.296333 0.05292,-0.412749 0.116417,-0.306916 0.370416,-0.560915 0.751415,-0.560915 0.518581,0 0.761997,0.433915 0.761997,1.18533 v 2.815157 h 1.566329 v -3.04799 c 0,-1.555745 -0.751415,-2.254243 -1.746245,-2.254243 -0.380999,0 -0.698498,0.09525 -0.984247,0.253999 -0.253999,0.148166 -0.476248,0.359832 -0.677331,0.634998 h -0.02117 c -0.22225,-0.539748 -0.740831,-0.888997 -1.418163,-0.888997 -0.878414,0 -1.344079,0.486832 -1.566328,0.825497 h -0.03175 l -0.0635,-0.698497 h -1.365245 c 0.02117,0.465665 0.04233,1.005413 0.04233,1.650994 z"
       style="font-weight:bold;font-family:'Myriad Pro';-inkscape-font-specification:'Myriad Pro, Bold';fill:#ffffff;fill-opacity:1"
       id="path367" />
    <path
       d="m 91.530419,54.413574 h 1.566329 v -3.01624 c 0,-0.137583 0.01058,-0.285749 0.0635,-0.412749 0.09525,-0.253999 0.338665,-0.571498 0.751414,-0.571498 0.518581,0 0.751414,0.444499 0.751414,1.09008 v 2.910407 h 1.566328 v -3.026823 c 0,-0.137583 0.02117,-0.296333 0.05292,-0.412749 0.116416,-0.306916 0.370415,-0.560915 0.751414,-0.560915 0.518582,0 0.761998,0.433915 0.761998,1.18533 v 2.815157 h 1.566328 v -3.04799 c 0,-1.555745 -0.751414,-2.254243 -1.746244,-2.254243 -0.380999,0 -0.698498,0.09525 -0.984247,0.253999 -0.253999,0.148166 -0.476249,0.359832 -0.677331,0.634998 h -0.02117 c -0.222249,-0.539748 -0.740831,-0.888997 -1.418162,-0.888997 -0.878414,0 -1.344079,0.486832 -1.566328,0.825497 h -0.03175 l -0.0635,-0.698497 h -1.365246 c 0.02117,0.465665 0.04233,1.005413 0.04233,1.650994 z"
       style="font-weight:bold;font-family:'Myriad Pro';-inkscape-font-specification:'Myriad Pro, Bold';fill:#ffffff;fill-opacity:1"
       id="path369" />
    <path
       d="m 100.63206,54.413574 h 1.60867 v -7.514143 h -1.60867 z"
       style="font-weight:bold;font-family:'Myriad Pro';-inkscape-font-specification:'Myriad Pro, Bold';fill:#ffffff;fill-opacity:1"
       id="path371" />
    <path
       d="m 108.42137,49.238341 h -1.60866 v 3.07974 c 0,0.137583 -0.0212,0.253999 -0.0635,0.349249 -0.0953,0.253999 -0.35984,0.560915 -0.80433,0.560915 -0.5715,0 -0.81492,-0.455082 -0.81492,-1.206496 v -2.783408 h -1.60866 v 3.037407 c 0,1.598078 0.762,2.254243 1.82033,2.254243 0.93133,0 1.41816,-0.529165 1.61924,-0.846664 h 0.0318 l 0.0741,0.730247 h 1.397 c -0.0212,-0.433915 -0.0423,-0.984247 -0.0423,-1.661578 z"
       style="font-weight:bold;font-family:'Myriad Pro';-inkscape-font-specification:'Myriad Pro, Bold';fill:#ffffff;fill-opacity:1"
       id="path373" />
    <path
       d="m 109.71253,54.413574 h 1.60866 v -2.98449 c 0,-0.148166 0.0106,-0.296333 0.0529,-0.402166 0.11642,-0.296332 0.381,-0.603248 0.8255,-0.603248 0.58208,0 0.81491,0.455082 0.81491,1.12183 v 2.868074 h 1.60866 v -3.058573 c 0,-1.523996 -0.79374,-2.233077 -1.85207,-2.233077 -0.86783,0 -1.38642,0.497415 -1.59808,0.836081 h -0.0318 l -0.0741,-0.719664 h -1.397 c 0.0212,0.465665 0.0423,1.005413 0.0423,1.650994 z"
       style="font-weight:bold;font-family:'Myriad Pro';-inkscape-font-specification:'Myriad Pro, Bold';fill:#ffffff;fill-opacity:1"
       id="path375" />
    <path
       d="m 120.81442,50.783502 c 0,-0.77258 0.0212,-1.206496 0.0423,-1.545161 h -1.397 l -0.0529,0.624414 h -0.0212 c -0.26458,-0.433915 -0.70908,-0.740831 -1.41816,-0.740831 -1.28058,0 -2.34949,1.05833 -2.34949,2.730492 0,1.481662 0.91016,2.518825 2.19074,2.518825 0.59267,0 1.09008,-0.243416 1.397,-0.666748 h 0.0212 v 0.328082 c 0,0.963081 -0.58208,1.365246 -1.34408,1.365246 -0.61383,0 -1.17474,-0.201083 -1.50283,-0.391582 l -0.31749,1.227663 c 0.46566,0.253999 1.17474,0.391582 1.86266,0.391582 0.76199,0 1.53457,-0.148166 2.09549,-0.634998 0.59266,-0.518582 0.79375,-1.333496 0.79375,-2.328326 z m -1.60866,1.322913 c 0,0.137583 -0.0106,0.306916 -0.0529,0.433915 -0.10583,0.370416 -0.43392,0.645581 -0.85725,0.645581 -0.66675,0 -1.04774,-0.603248 -1.04774,-1.375828 0,-0.941914 0.46566,-1.471079 1.05833,-1.471079 0.44449,0 0.75141,0.285749 0.86783,0.709081 0.0212,0.09525 0.0318,0.201083 0.0318,0.296332 z"
       style="font-weight:bold;font-family:'Myriad Pro';-inkscape-font-specification:'Myriad Pro, Bold';fill:#ffffff;fill-opacity:1"
       id="path377" />
    <path
       d="m 126.67756,52.339247 c 0.0212,-0.116416 0.0529,-0.359832 0.0529,-0.634997 0,-1.28058 -0.63499,-2.582326 -2.30715,-2.582326 -1.79917,0 -2.61408,1.449912 -2.61408,2.762242 0,1.619244 1.00541,2.635241 2.76224,2.635241 0.6985,0 1.34408,-0.105833 1.87325,-0.328082 l -0.21167,-1.09008 c -0.43392,0.148166 -0.87841,0.222249 -1.42875,0.222249 -0.75141,0 -1.41816,-0.317499 -1.46049,-0.984247 z m -3.34432,-1.100663 c 0.0423,-0.423332 0.31749,-1.047746 0.99483,-1.047746 0.74083,0 0.91016,0.656164 0.91016,1.047746 z"
       style="font-weight:bold;font-family:'Myriad Pro';-inkscape-font-specification:'Myriad Pro, Bold';fill:#ffffff;fill-opacity:1"
       id="path379" />
    <path
       d="m 127.69355,54.413574 h 1.60866 v -2.98449 c 0,-0.148166 0.0106,-0.296333 0.0529,-0.402166 0.11642,-0.296332 0.381,-0.603248 0.8255,-0.603248 0.58208,0 0.81491,0.455082 0.81491,1.12183 v 2.868074 h 1.60866 v -3.058573 c 0,-1.523996 -0.79375,-2.233077 -1.85208,-2.233077 -0.86783,0 -1.38641,0.497415 -1.59807,0.836081 h -0.0318 l -0.0741,-0.719664 h -1.39699 c 0.0212,0.465665 0.0423,1.005413 0.0423,1.650994 z"
       style="font-weight:bold;font-family:'Myriad Pro';-inkscape-font-specification:'Myriad Pro, Bold';fill:#ffffff;fill-opacity:1"
       id="path381" />
  </g>
</svg>
